<svg width="248.000000" height="1920.000000" xmlns="http://www.w3.org/2000/svg">
  <line x1="110.000000" y1="84.852814" x2="117.071068" y2="84.852814" style="stroke:blue" />
  <line x1="117.071068" y1="84.852814" x2="117.071068" y2="77.781746" style="stroke:blue" />
  <line x1="117.071068" y1="77.781746" x2="138.284271" y2="56.568542" style="stroke:blue" />
  <line x1="138.284271" y1="56.568542" x2="145.355339" y2="56.568542" style="stroke:blue" />
  <line x1="145.355339" y1="56.568542" x2="145.355339" y2="49.497475" style="stroke:blue" />
  <line x1="145.355339" y1="49.497475" x2="155.961941" y2="38.890873" style="stroke:blue" />
  <line x1="155.961941" y1="38.890873" x2="170.104076" y2="38.890873" style="stroke:blue" />
  <line x1="170.104076" y1="38.890873" x2="170.104076" y2="3.535534" style="stroke:blue" />
  <line x1="170.104076" y1="3.535534" x2="166.568542" y2="0.000000" style="stroke:blue" />
  <line x1="166.568542" y1="0.000000" x2="166.568542" y2="28.284271" style="stroke:blue" />
  <line x1="166.568542" y1="28.284271" x2="152.426407" y2="28.284271" style="stroke:blue" />
  <line x1="152.426407" y1="28.284271" x2="81.715729" y2="98.994949" style="stroke:blue" />
  <line x1="81.715729" y1="98.994949" x2="88.786797" y2="106.066017" style="stroke:blue" />
  <line x1="88.786797" y1="106.066017" x2="110.000000" y2="84.852814" style="stroke:blue" />
  <line x1="130.000000" y1="89.852814" x2="130.000000" y2="94.852814" style="stroke:green" />
  <line x1="130.000000" y1="94.852814" x2="120.000000" y2="94.852814" style="stroke:green" />
  <line x1="120.000000" y1="94.852814" x2="120.000000" y2="84.852814" style="stroke:green" />
  <line x1="120.000000" y1="84.852814" x2="110.000000" y2="84.852814" style="stroke:green" />
  <line x1="110.000000" y1="84.852814" x2="110.000000" y2="99.852814" style="stroke:green" />
  <line x1="110.000000" y1="99.852814" x2="145.000000" y2="99.852814" style="stroke:green" />
  <line x1="145.000000" y1="99.852814" x2="150.000000" y2="104.852814" style="stroke:green" />
  <line x1="150.000000" y1="104.852814" x2="155.000000" y2="99.852814" style="stroke:green" />
  <line x1="155.000000" y1="99.852814" x2="185.000000" y2="99.852814" style="stroke:green" />
  <line x1="185.000000" y1="99.852814" x2="190.000000" y2="104.852814" style="stroke:green" />
  <line x1="190.000000" y1="104.852814" x2="195.000000" y2="99.852814" style="stroke:green" />
  <line x1="195.000000" y1="99.852814" x2="230.000000" y2="99.852814" style="stroke:green" />
  <line x1="230.000000" y1="99.852814" x2="230.000000" y2="89.852814" style="stroke:green" />
  <line x1="230.000000" y1="89.852814" x2="130.000000" y2="89.852814" style="stroke:green" />
  <line x1="110.000000" y1="84.852814" x2="117.071068" y2="84.852814" style="stroke:red" />
  <line x1="155.355339" y1="334.852814" x2="162.426407" y2="334.852814" style="stroke:blue" />
  <line x1="162.426407" y1="334.852814" x2="162.426407" y2="327.781746" style="stroke:blue" />
  <line x1="162.426407" y1="327.781746" x2="183.639610" y2="306.568542" style="stroke:blue" />
  <line x1="183.639610" y1="306.568542" x2="190.710678" y2="306.568542" style="stroke:blue" />
  <line x1="190.710678" y1="306.568542" x2="190.710678" y2="299.497475" style="stroke:blue" />
  <line x1="190.710678" y1="299.497475" x2="201.317280" y2="288.890873" style="stroke:blue" />
  <line x1="201.317280" y1="288.890873" x2="215.459415" y2="288.890873" style="stroke:blue" />
  <line x1="215.459415" y1="288.890873" x2="215.459415" y2="253.535534" style="stroke:blue" />
  <line x1="215.459415" y1="253.535534" x2="211.923882" y2="250.000000" style="stroke:blue" />
  <line x1="211.923882" y1="250.000000" x2="211.923882" y2="278.284271" style="stroke:blue" />
  <line x1="211.923882" y1="278.284271" x2="197.781746" y2="278.284271" style="stroke:blue" />
  <line x1="197.781746" y1="278.284271" x2="127.071068" y2="348.994949" style="stroke:blue" />
  <line x1="127.071068" y1="348.994949" x2="134.142136" y2="356.066017" style="stroke:blue" />
  <line x1="134.142136" y1="356.066017" x2="155.355339" y2="334.852814" style="stroke:blue" />
  <line x1="137.677670" y1="331.317280" x2="134.142136" y2="327.781746" style="stroke:green" />
  <line x1="134.142136" y1="327.781746" x2="141.213203" y2="320.710678" style="stroke:green" />
  <line x1="141.213203" y1="320.710678" x2="148.284271" y2="327.781746" style="stroke:green" />
  <line x1="148.284271" y1="327.781746" x2="155.355339" y2="320.710678" style="stroke:green" />
  <line x1="155.355339" y1="320.710678" x2="144.748737" y2="310.104076" style="stroke:green" />
  <line x1="144.748737" y1="310.104076" x2="120.000000" y2="334.852814" style="stroke:green" />
  <line x1="120.000000" y1="334.852814" x2="112.928932" y2="334.852814" style="stroke:green" />
  <line x1="112.928932" y1="334.852814" x2="112.928932" y2="341.923882" style="stroke:green" />
  <line x1="112.928932" y1="341.923882" x2="91.715729" y2="363.137085" style="stroke:green" />
  <line x1="91.715729" y1="363.137085" x2="84.644661" y2="363.137085" style="stroke:green" />
  <line x1="84.644661" y1="363.137085" x2="84.644661" y2="370.208153" style="stroke:green" />
  <line x1="84.644661" y1="370.208153" x2="59.895924" y2="394.956890" style="stroke:green" />
  <line x1="59.895924" y1="394.956890" x2="66.966991" y2="402.027958" style="stroke:green" />
  <line x1="66.966991" y1="402.027958" x2="137.677670" y2="331.317280" style="stroke:green" />
  <line x1="155.355339" y1="320.710678" x2="148.284271" y2="327.781746" style="stroke:red" />
  <line x1="162.426407" y1="577.781746" x2="162.426407" y2="584.852814" style="stroke:blue" />
  <line x1="162.426407" y1="584.852814" x2="169.497475" y2="584.852814" style="stroke:blue" />
  <line x1="169.497475" y1="584.852814" x2="190.710678" y2="606.066017" style="stroke:blue" />
  <line x1="190.710678" y1="606.066017" x2="190.710678" y2="613.137085" style="stroke:blue" />
  <line x1="190.710678" y1="613.137085" x2="197.781746" y2="613.137085" style="stroke:blue" />
  <line x1="197.781746" y1="613.137085" x2="208.388348" y2="623.743687" style="stroke:blue" />
  <line x1="208.388348" y1="623.743687" x2="208.388348" y2="637.885822" style="stroke:blue" />
  <line x1="208.388348" y1="637.885822" x2="243.743687" y2="637.885822" style="stroke:blue" />
  <line x1="243.743687" y1="637.885822" x2="247.279221" y2="634.350288" style="stroke:blue" />
  <line x1="247.279221" y1="634.350288" x2="218.994949" y2="634.350288" style="stroke:blue" />
  <line x1="218.994949" y1="634.350288" x2="218.994949" y2="620.208153" style="stroke:blue" />
  <line x1="218.994949" y1="620.208153" x2="148.284271" y2="549.497475" style="stroke:blue" />
  <line x1="148.284271" y1="549.497475" x2="141.213203" y2="556.568542" style="stroke:blue" />
  <line x1="141.213203" y1="556.568542" x2="162.426407" y2="577.781746" style="stroke:blue" />
  <line x1="137.677670" y1="581.317280" x2="134.142136" y2="577.781746" style="stroke:green" />
  <line x1="134.142136" y1="577.781746" x2="141.213203" y2="570.710678" style="stroke:green" />
  <line x1="141.213203" y1="570.710678" x2="148.284271" y2="577.781746" style="stroke:green" />
  <line x1="148.284271" y1="577.781746" x2="155.355339" y2="570.710678" style="stroke:green" />
  <line x1="155.355339" y1="570.710678" x2="144.748737" y2="560.104076" style="stroke:green" />
  <line x1="144.748737" y1="560.104076" x2="120.000000" y2="584.852814" style="stroke:green" />
  <line x1="120.000000" y1="584.852814" x2="112.928932" y2="584.852814" style="stroke:green" />
  <line x1="112.928932" y1="584.852814" x2="112.928932" y2="591.923882" style="stroke:green" />
  <line x1="112.928932" y1="591.923882" x2="91.715729" y2="613.137085" style="stroke:green" />
  <line x1="91.715729" y1="613.137085" x2="84.644661" y2="613.137085" style="stroke:green" />
  <line x1="84.644661" y1="613.137085" x2="84.644661" y2="620.208153" style="stroke:green" />
  <line x1="84.644661" y1="620.208153" x2="59.895924" y2="644.956890" style="stroke:green" />
  <line x1="59.895924" y1="644.956890" x2="66.966991" y2="652.027958" style="stroke:green" />
  <line x1="66.966991" y1="652.027958" x2="137.677670" y2="581.317280" style="stroke:green" />
  <line x1="144.748737" y1="560.104076" x2="155.355339" y2="570.710678" style="stroke:red" />
  <line x1="145.000000" y1="834.852814" x2="150.000000" y2="839.852814" style="stroke:blue" />
  <line x1="150.000000" y1="839.852814" x2="155.000000" y2="834.852814" style="stroke:blue" />
  <line x1="155.000000" y1="834.852814" x2="185.000000" y2="834.852814" style="stroke:blue" />
  <line x1="185.000000" y1="834.852814" x2="190.000000" y2="839.852814" style="stroke:blue" />
  <line x1="190.000000" y1="839.852814" x2="195.000000" y2="834.852814" style="stroke:blue" />
  <line x1="195.000000" y1="834.852814" x2="210.000000" y2="834.852814" style="stroke:blue" />
  <line x1="210.000000" y1="834.852814" x2="220.000000" y2="844.852814" style="stroke:blue" />
  <line x1="220.000000" y1="844.852814" x2="245.000000" y2="819.852814" style="stroke:blue" />
  <line x1="245.000000" y1="819.852814" x2="245.000000" y2="814.852814" style="stroke:blue" />
  <line x1="245.000000" y1="814.852814" x2="225.000000" y2="834.852814" style="stroke:blue" />
  <line x1="225.000000" y1="834.852814" x2="215.000000" y2="824.852814" style="stroke:blue" />
  <line x1="215.000000" y1="824.852814" x2="115.000000" y2="824.852814" style="stroke:blue" />
  <line x1="115.000000" y1="824.852814" x2="115.000000" y2="834.852814" style="stroke:blue" />
  <line x1="115.000000" y1="834.852814" x2="145.000000" y2="834.852814" style="stroke:blue" />
  <line x1="120.000000" y1="834.852814" x2="115.000000" y2="834.852814" style="stroke:green" />
  <line x1="115.000000" y1="834.852814" x2="115.000000" y2="824.852814" style="stroke:green" />
  <line x1="115.000000" y1="824.852814" x2="125.000000" y2="824.852814" style="stroke:green" />
  <line x1="125.000000" y1="824.852814" x2="125.000000" y2="814.852814" style="stroke:green" />
  <line x1="125.000000" y1="814.852814" x2="110.000000" y2="814.852814" style="stroke:green" />
  <line x1="110.000000" y1="814.852814" x2="110.000000" y2="849.852814" style="stroke:green" />
  <line x1="110.000000" y1="849.852814" x2="105.000000" y2="854.852814" style="stroke:green" />
  <line x1="105.000000" y1="854.852814" x2="110.000000" y2="859.852814" style="stroke:green" />
  <line x1="110.000000" y1="859.852814" x2="110.000000" y2="889.852814" style="stroke:green" />
  <line x1="110.000000" y1="889.852814" x2="105.000000" y2="894.852814" style="stroke:green" />
  <line x1="105.000000" y1="894.852814" x2="110.000000" y2="899.852814" style="stroke:green" />
  <line x1="110.000000" y1="899.852814" x2="110.000000" y2="934.852814" style="stroke:green" />
  <line x1="110.000000" y1="934.852814" x2="120.000000" y2="934.852814" style="stroke:green" />
  <line x1="120.000000" y1="934.852814" x2="120.000000" y2="834.852814" style="stroke:green" />
  <line x1="125.000000" y1="824.852814" x2="115.000000" y2="824.852814" style="stroke:red" />
  <line x1="115.000000" y1="824.852814" x2="115.000000" y2="834.852814" style="stroke:red" />
  <line x1="115.000000" y1="834.852814" x2="120.000000" y2="834.852814" style="stroke:red" />
  <line x1="120.000000" y1="1084.852814" x2="125.000000" y2="1089.852814" style="stroke:blue" />
  <line x1="125.000000" y1="1089.852814" x2="130.000000" y2="1084.852814" style="stroke:blue" />
  <line x1="130.000000" y1="1084.852814" x2="160.000000" y2="1084.852814" style="stroke:blue" />
  <line x1="160.000000" y1="1084.852814" x2="165.000000" y2="1089.852814" style="stroke:blue" />
  <line x1="165.000000" y1="1089.852814" x2="170.000000" y2="1084.852814" style="stroke:blue" />
  <line x1="170.000000" y1="1084.852814" x2="185.000000" y2="1084.852814" style="stroke:blue" />
  <line x1="185.000000" y1="1084.852814" x2="195.000000" y2="1094.852814" style="stroke:blue" />
  <line x1="195.000000" y1="1094.852814" x2="220.000000" y2="1069.852814" style="stroke:blue" />
  <line x1="220.000000" y1="1069.852814" x2="220.000000" y2="1064.852814" style="stroke:blue" />
  <line x1="220.000000" y1="1064.852814" x2="200.000000" y2="1084.852814" style="stroke:blue" />
  <line x1="200.000000" y1="1084.852814" x2="190.000000" y2="1074.852814" style="stroke:blue" />
  <line x1="190.000000" y1="1074.852814" x2="90.000000" y2="1074.852814" style="stroke:blue" />
  <line x1="90.000000" y1="1074.852814" x2="90.000000" y2="1084.852814" style="stroke:blue" />
  <line x1="90.000000" y1="1084.852814" x2="120.000000" y2="1084.852814" style="stroke:blue" />
  <line x1="100.000000" y1="1094.852814" x2="100.000000" y2="1089.852814" style="stroke:green" />
  <line x1="100.000000" y1="1089.852814" x2="110.000000" y2="1089.852814" style="stroke:green" />
  <line x1="110.000000" y1="1089.852814" x2="110.000000" y2="1099.852814" style="stroke:green" />
  <line x1="110.000000" y1="1099.852814" x2="120.000000" y2="1099.852814" style="stroke:green" />
  <line x1="120.000000" y1="1099.852814" x2="120.000000" y2="1084.852814" style="stroke:green" />
  <line x1="120.000000" y1="1084.852814" x2="85.000000" y2="1084.852814" style="stroke:green" />
  <line x1="85.000000" y1="1084.852814" x2="80.000000" y2="1079.852814" style="stroke:green" />
  <line x1="80.000000" y1="1079.852814" x2="75.000000" y2="1084.852814" style="stroke:green" />
  <line x1="75.000000" y1="1084.852814" x2="45.000000" y2="1084.852814" style="stroke:green" />
  <line x1="45.000000" y1="1084.852814" x2="40.000000" y2="1079.852814" style="stroke:green" />
  <line x1="40.000000" y1="1079.852814" x2="35.000000" y2="1084.852814" style="stroke:green" />
  <line x1="35.000000" y1="1084.852814" x2="0.000000" y2="1084.852814" style="stroke:green" />
  <line x1="0.000000" y1="1084.852814" x2="0.000000" y2="1094.852814" style="stroke:green" />
  <line x1="0.000000" y1="1094.852814" x2="100.000000" y2="1094.852814" style="stroke:green" />
  <line x1="90.000000" y1="1084.852814" x2="120.000000" y2="1084.852814" style="stroke:red" />
  <line x1="39.038059" y1="1274.748737" x2="39.038059" y2="1281.819805" style="stroke:blue" />
  <line x1="39.038059" y1="1281.819805" x2="46.109127" y2="1281.819805" style="stroke:blue" />
  <line x1="46.109127" y1="1281.819805" x2="67.322330" y2="1303.033009" style="stroke:blue" />
  <line x1="67.322330" y1="1303.033009" x2="67.322330" y2="1310.104076" style="stroke:blue" />
  <line x1="67.322330" y1="1310.104076" x2="74.393398" y2="1310.104076" style="stroke:blue" />
  <line x1="74.393398" y1="1310.104076" x2="85.000000" y2="1320.710678" style="stroke:blue" />
  <line x1="85.000000" y1="1320.710678" x2="85.000000" y2="1334.852814" style="stroke:blue" />
  <line x1="85.000000" y1="1334.852814" x2="120.355339" y2="1334.852814" style="stroke:blue" />
  <line x1="120.355339" y1="1334.852814" x2="123.890873" y2="1331.317280" style="stroke:blue" />
  <line x1="123.890873" y1="1331.317280" x2="95.606602" y2="1331.317280" style="stroke:blue" />
  <line x1="95.606602" y1="1331.317280" x2="95.606602" y2="1317.175144" style="stroke:blue" />
  <line x1="95.606602" y1="1317.175144" x2="24.895924" y2="1246.464466" style="stroke:blue" />
  <line x1="24.895924" y1="1246.464466" x2="17.824856" y2="1253.535534" style="stroke:blue" />
  <line x1="17.824856" y1="1253.535534" x2="39.038059" y2="1274.748737" style="stroke:blue" />
  <line x1="100.000000" y1="1344.852814" x2="100.000000" y2="1339.852814" style="stroke:green" />
  <line x1="100.000000" y1="1339.852814" x2="110.000000" y2="1339.852814" style="stroke:green" />
  <line x1="110.000000" y1="1339.852814" x2="110.000000" y2="1349.852814" style="stroke:green" />
  <line x1="110.000000" y1="1349.852814" x2="120.000000" y2="1349.852814" style="stroke:green" />
  <line x1="120.000000" y1="1349.852814" x2="120.000000" y2="1334.852814" style="stroke:green" />
  <line x1="120.000000" y1="1334.852814" x2="85.000000" y2="1334.852814" style="stroke:green" />
  <line x1="85.000000" y1="1334.852814" x2="80.000000" y2="1329.852814" style="stroke:green" />
  <line x1="80.000000" y1="1329.852814" x2="75.000000" y2="1334.852814" style="stroke:green" />
  <line x1="75.000000" y1="1334.852814" x2="45.000000" y2="1334.852814" style="stroke:green" />
  <line x1="45.000000" y1="1334.852814" x2="40.000000" y2="1329.852814" style="stroke:green" />
  <line x1="40.000000" y1="1329.852814" x2="35.000000" y2="1334.852814" style="stroke:green" />
  <line x1="35.000000" y1="1334.852814" x2="0.000000" y2="1334.852814" style="stroke:green" />
  <line x1="0.000000" y1="1334.852814" x2="0.000000" y2="1344.852814" style="stroke:green" />
  <line x1="0.000000" y1="1344.852814" x2="100.000000" y2="1344.852814" style="stroke:green" />
  <line x1="85.000000" y1="1334.852814" x2="120.000000" y2="1334.852814" style="stroke:red" />
  <line x1="38.682720" y1="1524.748737" x2="38.682720" y2="1531.819805" style="stroke:blue" />
  <line x1="38.682720" y1="1531.819805" x2="45.753788" y2="1531.819805" style="stroke:blue" />
  <line x1="45.753788" y1="1531.819805" x2="66.966991" y2="1553.033009" style="stroke:blue" />
  <line x1="66.966991" y1="1553.033009" x2="66.966991" y2="1560.104076" style="stroke:blue" />
  <line x1="66.966991" y1="1560.104076" x2="74.038059" y2="1560.104076" style="stroke:blue" />
  <line x1="74.038059" y1="1560.104076" x2="84.644661" y2="1570.710678" style="stroke:blue" />
  <line x1="84.644661" y1="1570.710678" x2="84.644661" y2="1584.852814" style="stroke:blue" />
  <line x1="84.644661" y1="1584.852814" x2="120.000000" y2="1584.852814" style="stroke:blue" />
  <line x1="120.000000" y1="1584.852814" x2="123.535534" y2="1581.317280" style="stroke:blue" />
  <line x1="123.535534" y1="1581.317280" x2="95.251263" y2="1581.317280" style="stroke:blue" />
  <line x1="95.251263" y1="1581.317280" x2="95.251263" y2="1567.175144" style="stroke:blue" />
  <line x1="95.251263" y1="1567.175144" x2="24.540585" y2="1496.464466" style="stroke:blue" />
  <line x1="24.540585" y1="1496.464466" x2="17.469517" y2="1503.535534" style="stroke:blue" />
  <line x1="17.469517" y1="1503.535534" x2="38.682720" y2="1524.748737" style="stroke:blue" />
  <line x1="185.000000" y1="1594.852814" x2="185.000000" y2="1589.852814" style="stroke:green" />
  <line x1="185.000000" y1="1589.852814" x2="195.000000" y2="1589.852814" style="stroke:green" />
  <line x1="195.000000" y1="1589.852814" x2="195.000000" y2="1599.852814" style="stroke:green" />
  <line x1="195.000000" y1="1599.852814" x2="205.000000" y2="1599.852814" style="stroke:green" />
  <line x1="205.000000" y1="1599.852814" x2="205.000000" y2="1584.852814" style="stroke:green" />
  <line x1="205.000000" y1="1584.852814" x2="170.000000" y2="1584.852814" style="stroke:green" />
  <line x1="170.000000" y1="1584.852814" x2="165.000000" y2="1579.852814" style="stroke:green" />
  <line x1="165.000000" y1="1579.852814" x2="160.000000" y2="1584.852814" style="stroke:green" />
  <line x1="160.000000" y1="1584.852814" x2="130.000000" y2="1584.852814" style="stroke:green" />
  <line x1="130.000000" y1="1584.852814" x2="125.000000" y2="1579.852814" style="stroke:green" />
  <line x1="125.000000" y1="1579.852814" x2="120.000000" y2="1584.852814" style="stroke:green" />
  <line x1="120.000000" y1="1584.852814" x2="85.000000" y2="1584.852814" style="stroke:green" />
  <line x1="85.000000" y1="1584.852814" x2="85.000000" y2="1594.852814" style="stroke:green" />
  <line x1="85.000000" y1="1594.852814" x2="185.000000" y2="1594.852814" style="stroke:green" />
  <line x1="85.000000" y1="1584.852814" x2="120.000000" y2="1584.852814" style="stroke:red" />
  <line x1="120.000000" y1="1584.852814" x2="123.535534" y2="1581.317280" style="stroke:red" />
  <line x1="176.568542" y1="1891.421356" x2="176.568542" y2="1884.350288" style="stroke:blue" />
  <line x1="176.568542" y1="1884.350288" x2="169.497475" y2="1884.350288" style="stroke:blue" />
  <line x1="169.497475" y1="1884.350288" x2="148.284271" y2="1863.137085" style="stroke:blue" />
  <line x1="148.284271" y1="1863.137085" x2="148.284271" y2="1856.066017" style="stroke:blue" />
  <line x1="148.284271" y1="1856.066017" x2="141.213203" y2="1856.066017" style="stroke:blue" />
  <line x1="141.213203" y1="1856.066017" x2="130.606602" y2="1845.459415" style="stroke:blue" />
  <line x1="130.606602" y1="1845.459415" x2="130.606602" y2="1831.317280" style="stroke:blue" />
  <line x1="130.606602" y1="1831.317280" x2="95.251263" y2="1831.317280" style="stroke:blue" />
  <line x1="95.251263" y1="1831.317280" x2="91.715729" y2="1834.852814" style="stroke:blue" />
  <line x1="91.715729" y1="1834.852814" x2="120.000000" y2="1834.852814" style="stroke:blue" />
  <line x1="120.000000" y1="1834.852814" x2="120.000000" y2="1848.994949" style="stroke:blue" />
  <line x1="120.000000" y1="1848.994949" x2="190.710678" y2="1919.705627" style="stroke:blue" />
  <line x1="190.710678" y1="1919.705627" x2="197.781746" y2="1912.634560" style="stroke:blue" />
  <line x1="197.781746" y1="1912.634560" x2="176.568542" y2="1891.421356" style="stroke:blue" />
  <line x1="100.000000" y1="1844.852814" x2="100.000000" y2="1839.852814" style="stroke:green" />
  <line x1="100.000000" y1="1839.852814" x2="110.000000" y2="1839.852814" style="stroke:green" />
  <line x1="110.000000" y1="1839.852814" x2="110.000000" y2="1849.852814" style="stroke:green" />
  <line x1="110.000000" y1="1849.852814" x2="120.000000" y2="1849.852814" style="stroke:green" />
  <line x1="120.000000" y1="1849.852814" x2="120.000000" y2="1834.852814" style="stroke:green" />
  <line x1="120.000000" y1="1834.852814" x2="85.000000" y2="1834.852814" style="stroke:green" />
  <line x1="85.000000" y1="1834.852814" x2="80.000000" y2="1829.852814" style="stroke:green" />
  <line x1="80.000000" y1="1829.852814" x2="75.000000" y2="1834.852814" style="stroke:green" />
  <line x1="75.000000" y1="1834.852814" x2="45.000000" y2="1834.852814" style="stroke:green" />
  <line x1="45.000000" y1="1834.852814" x2="40.000000" y2="1829.852814" style="stroke:green" />
  <line x1="40.000000" y1="1829.852814" x2="35.000000" y2="1834.852814" style="stroke:green" />
  <line x1="35.000000" y1="1834.852814" x2="0.000000" y2="1834.852814" style="stroke:green" />
  <line x1="0.000000" y1="1834.852814" x2="0.000000" y2="1844.852814" style="stroke:green" />
  <line x1="0.000000" y1="1844.852814" x2="100.000000" y2="1844.852814" style="stroke:green" />
  <line x1="91.715729" y1="1834.852814" x2="120.000000" y2="1834.852814" style="stroke:red" />
  <line x1="120.000000" y1="1834.852814" x2="120.000000" y2="1848.994949" style="stroke:red" />
</svg>
