P2
6 10
1000
125 625 375 750 375 1000 
625 250 750 1000 750 500 
0 0 625 375 875 625 
250 1000 375 500 625 0 
375 750 500 0 625 875 
375 625 750 375 0 375 
625 375 500 750 375 750 
875 0 375 0 750 500 
625 875 375 875 1000 625 
375 750 0 500 625 750 
