P3
6 10
2000
0 125 0  0 625 0  0 375 0  0 750 0  0 375 0  0 1000 0 
0 625 0  0 250 0  0 750 0  0 1000 0  0 750 0  0 500 0 
0 0 1000  0 0 0  0 625 0  0 375 0  0 875 0  0 625 0 
0 250 0  0 1000 0  0 375 0  0 500 0  0 625 0  0 0 0 
0 375 0  0 750 0  0 500 0  0 0 1000  0 625 0  0 875 0 
0 375 0  0 625 0  0 750 0  0 375 0  0 0 0  0 375 0 
0 625 0  0 375 0  0 500 0  0 750 0  0 375 0  0 750 0 
0 875 0  0 0 1000  0 375 0  0 0 0  0 750 0  0 500 0 
0 625 0  0 875 0  0 375 0  0 875 0  0 1000 0  0 625 0 
0 375 0  0 750 0  0 0 0  0 500 0  0 625 0  0 750 0 
